<?xml version="1.0" encoding="utf-8"?>
<svg viewBox="13.782 0 663.518 175.925" xmlns="http://www.w3.org/2000/svg">
  <g transform="matrix(0.1, 0, 0, -0.1, -4.053549, 430.486908)" fill="#ffffff" stroke="none">
    <path d="M270 3421 l0 -801 220 0 220 0 0 165 0 165 93 0 c109 0 175 16 277 66 90 45 199 148 251 239 l34 60 6 -135 c8 -193 50 -299 166 -414 139 -139 338 -197 517 -151 140 37 280 141 346 258 18 32 34 56 36 55 1 -2 -8 -52 -20 -110 l-23 -107 67 -26 c152 -58 198 -67 365 -72 183 -6 254 6 358 58 81 42 122 73 169 132 l38 49 0 -116 0 -116 215 0 215 0 0 275 0 275 125 0 125 0 0 -275 0 -275 393 0 394 0 12 53 c6 30 16 70 22 90 l10 37 223 0 223 0 12 -53 c6 -30 16 -70 22 -90 l10 -37 215 0 c211 0 215 0 209 20 -3 11 -5 20 -3 20 2 0 32 -10 68 -22 91 -29 353 -37 454 -14 107 25 193 71 262 140 105 105 151 233 141 394 -6 109 -50 202 -134 285 -67 68 -144 107 -313 162 -151 49 -190 85 -140 130 46 42 171 34 349 -24 l89 -28 6 21 c2 11 8 107 12 212 l7 190 -74 22 c-101 29 -200 42 -314 42 -308 0 -494 -125 -536 -362 -25 -141 30 -294 151 -422 81 -85 150 -128 265 -167 131 -43 167 -78 151 -143 -8 -31 -62 -50 -117 -41 -22 4 -108 33 -191 66 -84 32 -158 59 -165 59 -7 0 -15 -10 -17 -22 -3 -13 -14 -61 -24 -108 l-19 -85 -23 75 c-101 340 -180 607 -251 848 l-83 282 -242 0 -242 0 -15 -47 c-7 -27 -92 -311 -188 -633 l-174 -584 -3 632 -2 632 -215 0 -215 0 0 -270 0 -270 -125 0 -125 0 0 270 0 270 -215 0 -215 0 0 -389 0 -390 -54 57 c-73 77 -135 111 -301 168 -77 26 -150 56 -162 67 -54 48 -5 99 95 99 60 0 189 -28 284 -61 l57 -19 5 51 c3 29 7 125 9 214 l4 161 -71 21 c-202 58 -458 53 -611 -12 -27 -12 -73 -41 -102 -64 l-53 -43 0 70 0 70 -215 0 -215 0 0 -487 c0 -537 1 -530 -62 -576 -37 -28 -106 -27 -145 1 -62 44 -63 52 -63 582 l0 480 -210 0 -209 0 -3 -137 -3 -138 -36 55 c-57 87 -147 165 -241 210 -148 71 -167 73 -510 78 l-308 3 0 -800z m610 301 c80 -40 106 -149 54 -226 -33 -48 -76 -66 -159 -66 l-65 0 0 155 0 155 68 0 c44 0 79 -6 102 -18z m4315 -454 l7 -38 -81 0 c-45 0 -81 2 -81 5 0 7 70 298 77 320 6 18 59 -177 78 -287z m-2578 59 c61 -48 138 -87 231 -117 116 -37 166 -106 111 -156 -40 -36 -114 -24 -289 45 -85 33 -161 61 -167 61 -10 0 -13 37 -13 151 l0 151 40 -48 c22 -27 61 -66 87 -87z"/>
  </g>
</svg>