<?xml version="1.0" encoding="utf-8"?>
<svg viewBox="96.452 0 48.548 24" xmlns="http://www.w3.org/2000/svg">
  <g fill="none" fill-rule="evenodd">
    <path d="M141.405583,0.0238273381 L106.904633,0.0238273381 C105.887655,0.0238273381 104.925928,0.486561151 104.291223,1.28080576 L97.4054676,9.89870504 C96.4313094,11.1180432 96.4295827,12.8484604 97.4013237,14.0698705 L104.291223,22.7278273 C104.925928,23.5251799 105.889381,23.9899856 106.908777,23.9899856 L141.405928,23.9899856 C143.25341,23.9899856 144.751079,22.4923165 144.751079,20.6448345 L144.751079,3.36897842 C144.750388,1.5214964 143.252719,0.0238273381 141.405583,0.0238273381 Z M101.232691,13.5843453 C100.389755,13.5843453 99.6966906,12.9437698 99.6134676,12.1225899 C99.6075971,12.0728633 99.6041439,12.0221007 99.6041439,11.9706475 C99.6041439,11.9454388 99.6051799,11.9202302 99.6065612,11.8953669 C99.6390216,11.0251511 100.354187,10.3293237 101.232691,10.3293237 C102.131568,10.3293237 102.860201,11.0579568 102.860201,11.9568345 C102.860201,12.8557122 102.131568,13.5843453 101.232691,13.5843453 Z" id="Shape" fill="#006FCF" fill-rule="nonzero"/>
    <path d="M107.164317,5.97030216 L109.927252,5.97030216 L109.927252,7.79602878 C110.702849,6.72379856 111.752978,5.71821583 113.602187,5.71821583 C115.336058,5.71821583 116.568173,6.56356835 117.207367,7.84195683 C118.166676,6.56356835 119.445065,5.71821583 121.270791,5.71821583 C123.895597,5.71821583 125.493065,7.38509353 125.493065,10.3289784 L125.493065,18.0214101 L122.731511,18.0214101 L122.731511,11.1739856 C122.731511,9.25640288 121.841612,8.22871942 120.289036,8.22871942 C118.782388,8.22871942 117.710158,9.27884892 117.710158,11.2199137 L117.710158,18.0210647 L114.948604,18.0210647 L114.948604,11.1505036 C114.948604,9.27884892 114.035223,8.22906475 112.506129,8.22906475 C110.977036,8.22906475 109.927252,9.37105036 109.927252,11.220259 L109.927252,18.0214101 L107.164317,18.0214101 L107.164317,5.97030216 Z" id="Path" fill="#FFFFFF"/>
    <path d="M128.399655,12.0417842 L128.399655,11.9958561 C128.399655,8.54917986 130.840748,5.71821583 134.287424,5.71821583 C138.12259,5.71821583 140.062273,8.73151079 140.062273,12.2006331 C140.062273,12.4527194 140.039827,12.7034245 140.016345,12.9776115 L131.161209,12.9776115 C131.457842,14.939741 132.850532,16.0357986 134.629986,16.0357986 C135.976748,16.0357986 136.936058,15.5330072 137.893986,14.5971799 L139.514935,16.0357986 C138.37295,17.4046619 136.797928,18.2959424 134.584058,18.2959424 C131.092835,18.2955971 128.399655,15.7612662 128.399655,12.0417842 Z M137.323165,11.1505036 C137.140835,9.37070504 136.090705,7.97835971 134.264978,7.97835971 C132.575655,7.97835971 131.389468,9.27884892 131.137381,11.1505036 L137.323165,11.1505036 Z" id="Shape" fill="#FFFFFF" fill-rule="nonzero"/>
  </g>
</svg>